<?xml version="1.0" encoding="UTF-8"?>
<svg id="Calque_1" xmlns="http://www.w3.org/2000/svg" version="1.1" viewBox="0 0 1300 1300">
  <!-- Generator: Adobe Illustrator 29.8.2, SVG Export Plug-In . SVG Version: 2.1.1 Build 3)  -->
  <defs>
    <style>
      .st0 {
        fill: #012d53;
      }

      .st1 {
        fill: #fff;
      }

      .st2 {
        fill: #f36f61;
      }
    </style>
  </defs>
  <circle class="st1" cx="682.5" cy="705.76" r="481.29"/>
  <path class="st0" d="M607.5,888c-17.11-29.97-35.46-59.28-53-89-34.52-58.5-67.35-118.65-103.2-176.3-8.04-12.93-13.57-25.09-29.79-29.21-24.33-6.18-45.19,6.45-47,32.02-4.79,67.66,3.54,140.8.03,209.03-3.31,27.74-18.27,48.44-45.27,56.73-2.58.79-12.44,3.74-14.26,3.74h-19.5v-287.5c0-30.75,35.11-66.37,61.33-78.67,60.37-28.33,124.83-5.84,160.09,48.26,48.12,73.84,89.22,154.76,136.76,229.24,17.18,34.57-7.77,78.93-46.18,81.68Z"/>
  <path class="st2" d="M753.5,524c44.33-19.54,104.26.55,118.02,49.48,2.71,9.64,2.9,18.14,4.02,27.98l-.04,294.54h-22.5c-5.55,0-20.39-5.53-25.71-8.29-24.59-12.77-33.47-34.45-34.84-61.16-4-77.82,3.45-158.56,1.05-236.55-.75-24.53-5.28-70.25-40-66Z"/>
  <path class="st0" d="M903.5,525c29.05,1.67,59.78,14.74,75.42,40.08,2.81,4.55,9.58,18.58,9.58,23.42v306.5h-26.5c-24.25,0-58.5-28.55-58.5-53.5v-316.5Z"/>
  <path class="st0" d="M753.5,524c34.72-4.25,39.25,41.47,40,66-10.72.44-18.46,9.1-24.41,17.09-28.71,47.04-57.56,94.28-86.59,140.91l-44-74c22.3-36.34,43.57-76.16,67.2-111.3,9.42-14.02,30.29-36.55,47.8-38.7Z"/>
  <path class="st2" d="M941.28,405.28c80.79-9.71,83.62,110.25,8.67,110.76-68.63.46-74.11-102.89-8.67-110.76ZM943.24,429.24c-33.16,5.19-31.68,56.59,0,61.52,49.81,7.75,49.99-69.34,0-61.52Z"/>
  <path class="st2" d="M682.5,748c-2.04,3.28-14.92,26.96-16.5,26.98l-45.11-71.98.09-1.93c5.23-9.38,11.93-17.96,17.51-27.07l44,74Z"/>
  <path class="st2" d="M607.5,888c-38.96,2.78-68.41-32.15-59.7-70.2,1.49-6.51,5.2-12.3,6.7-18.8,17.54,29.72,35.89,59.03,53,89Z"/>
</svg>